# xmcd
#
# Track frame offsets: 
#        183
#        51558
#        97158
#        151248
#        179358
#        226083
#        286758
#        325608
#
# Disc length: 4693 seconds
#
# Revision: 6
# Processed by: cddbd v1.5.2PL0 Copyright (c) Steve Scherf et al.
# Submitted via: ExactAudioCopy v0.99pb5
#
DISCID=64125308
DTITLE=Guarneri Quartet - Beethoven - String Quartets Op. 59 Nos. 1 and 
DTITLE=2
DYEAR=1987
DGENRE=Classical
TTITLE0=01. String Quartet in F major Op. 59 No. 1 - 1. Allegro
TTITLE1=02. String Quartet in F major Op. 59 No. 1 - 2. Allegretto viv
TTITLE1=ace, sempre scherzando
TTITLE2=03. String Quartet in F major Op. 59 No. 1 - 3. Adagio molto e
TTITLE2=mesto
TTITLE3=04. String Quartet in F major Op. 59 No. 1 - 4. Theme russe, a
TTITLE3=llegro
TTITLE4=05. String Quartet in E minor Op. 59 No. 2 - 1. Allegro
TTITLE5=06. String Quartet in E minor Op. 59 No. 2 - 2. Molto adagio
TTITLE6=07. String Quartet in E minor Op. 59 No. 2 - 3. Allegretto
TTITLE7=08. String Quartet in E minor Op. 59 No. 2 - 4. Finale, presto
EXTD=YEAR: 1987
EXTT0=
EXTT1=
EXTT2=
EXTT3=
EXTT4=
EXTT5=
EXTT6=
EXTT7=
PLAYORDER=
